<svg xmlns="http://www.w3.org/2000/svg" width="800" height="172" viewBox="0 0 800 172" fill="none"><g clip-path="url(#clip0_119_31)"><path d="M23.6282 137.127C24.5929 140.504 29.4141 148.699 46.7741 148.699C59.7929 148.699 67.9906 145.805 66.5435 138.572C65.5788 133.751 57.8635 130.857 44.3624 128.927C33.7553 127.482 1.44706 123.144 3.37647 95.1765C4.82353 76.8518 21.7012 65.28 45.8094 65.28C69.92 65.7624 86.7977 79.2636 87.2777 99.5153H63.1694C63.1694 90.353 52.08 87.9436 44.8447 87.9436C38.0941 87.9436 27.4847 89.3906 27.4847 96.6236C27.4847 103.856 34.2353 104.821 48.2188 106.751C68.4706 109.645 92.0988 115.913 91.1341 140.504C90.6518 155.934 76.6682 171.847 46.2894 171.847C23.1435 170.882 -0.00234985 160.275 -0.00234985 137.612L23.6282 137.127Z" fill="white"></path><path d="M162.021 65.28C194.812 65.28 215.064 85.5318 215.064 118.322C215.064 151.113 194.809 171.365 162.021 171.365C129.233 171.365 108.979 151.113 108.979 118.322C108.979 85.5318 129.231 65.28 162.021 65.28ZM133.089 118.322C133.089 138.574 142.734 148.219 162.021 148.219C181.308 148.219 190.953 138.574 190.953 118.322C190.953 98.0706 181.308 88.4259 162.021 88.4259C142.734 88.4259 133.089 98.0683 133.089 118.322Z" fill="white"></path><path d="M256.532 137.127C257.496 140.503 262.318 148.699 279.678 148.699C292.696 148.699 300.894 145.805 299.447 138.572C298.482 133.751 290.767 130.856 277.266 128.927C266.656 127.48 234.351 123.141 236.28 95.1741C237.727 76.8494 254.605 65.2776 278.713 65.2776C302.824 65.7599 319.701 79.2611 320.181 99.5129H296.071C296.071 90.3505 284.979 87.9411 277.746 87.9411C270.995 87.9411 260.386 89.3882 260.386 96.6211C260.386 103.854 267.136 104.819 281.12 106.748C301.372 109.642 325 115.911 324.035 140.501C323.553 155.932 309.569 171.845 279.191 171.845C256.045 170.88 232.899 160.273 232.899 137.609L256.532 137.127Z" fill="white"></path><path d="M393.958 65.28C403.602 65.28 413.727 67.2095 422.407 72.0306V28.1506H446.518V170.882H425.784L424.336 163.649C415.174 169.435 404.567 171.847 393.958 171.847C361.649 171.847 341.88 151.595 341.88 118.805C341.88 86.0142 361.652 65.28 393.958 65.28ZM394.922 147.737C414.209 147.737 423.372 138.092 423.372 118.322C423.372 98.553 414.209 88.9083 394.922 88.9083C375.635 88.9083 366.473 98.553 366.473 118.322C366.473 138.574 375.635 147.737 394.922 147.737Z" fill="white"></path><path d="M517.402 65.28C550.193 65.28 570.445 85.5318 570.445 118.322C570.445 151.113 550.193 171.365 517.402 171.365C484.612 171.365 464.36 151.113 464.36 118.322C464.36 85.5318 484.612 65.28 517.402 65.28ZM488.471 118.322C488.471 138.574 498.115 148.219 517.402 148.219C536.689 148.219 546.334 138.574 546.334 118.322C546.334 98.0706 536.689 88.4259 517.402 88.4259C497.633 88.4259 488.471 98.0683 488.471 118.322Z" fill="white"></path><path d="M639.88 65.28C666.882 65.28 683.76 78.2989 690.028 101.927L690.993 104.821H665.918C662.543 93.7318 654.826 88.4259 640.36 88.4259C622.035 88.4259 612.875 98.0706 612.875 117.84C612.875 137.609 622.038 147.254 640.36 147.254C654.826 147.254 662.541 142.433 665.918 130.859H690.993L690.028 133.753C683.76 157.381 666.882 170.882 639.88 170.882C607.572 170.882 587.802 150.631 587.802 117.84C587.802 85.0494 608.056 65.28 639.88 65.28Z" fill="white"></path><path d="M732.463 137.127C733.428 140.503 738.249 148.699 755.609 148.699C768.628 148.699 776.826 145.805 775.379 138.572C774.414 133.751 766.699 130.856 753.198 128.927C742.588 127.48 710.282 123.141 712.212 95.1741C713.659 76.8494 730.536 65.2776 754.645 65.2776C778.755 65.7599 795.633 79.2611 796.113 99.5129H772.002C772.002 90.3505 760.911 87.9411 753.678 87.9411C746.927 87.9411 736.318 89.3882 736.318 96.6211C736.318 103.854 743.068 104.819 757.052 106.748C777.303 109.642 800.932 115.911 799.967 140.501C799.485 155.932 785.501 171.845 755.122 171.845C731.976 170.88 708.831 160.273 708.831 137.609L732.463 137.127Z" fill="white"></path><path d="M652.901 28.1506C658.228 28.1506 662.546 32.4683 662.546 37.7953C662.546 43.1224 658.228 47.44 652.901 47.44C647.574 47.44 643.256 43.1224 643.256 37.7953C643.256 32.4683 647.574 28.1506 652.901 28.1506Z" fill="white"></path><path d="M678.939 28.1506C684.266 28.1506 688.584 32.4683 688.584 37.7953C688.584 43.1224 684.266 47.44 678.939 47.44C673.612 47.44 669.294 43.1224 669.294 37.7953C669.294 32.4683 673.614 28.1506 678.939 28.1506Z" fill="white"></path><path d="M704.979 28.1506C710.306 28.1506 714.624 32.4683 714.624 37.7953C714.624 43.1224 710.306 47.44 704.979 47.44C699.652 47.44 695.334 43.1224 695.334 37.7953C695.334 32.4683 699.652 28.1506 704.979 28.1506Z" fill="white"></path><path d="M796.113 28.6329H720.889V46.4753H796.113V28.6329Z" fill="white"></path><path d="M0.0117798 16.4729C0.0117798 7.81176 6.58825 0 20.8706 0C34.8518 0 39.5483 6.16471 39.5483 11.7647C39.5483 11.9059 39.5482 12.3765 39.5106 12.8471H35.6777C35.7153 12.4235 35.7153 12.0941 35.7153 12C35.7153 8.28235 31.9953 4.32941 20.9082 4.32941C9.36943 4.32941 4.1459 9.92941 4.1459 16.5176C4.1459 22.5882 8.95766 27.8588 20.7577 27.8588C31.0565 27.8588 35.8659 23.3882 35.8659 20.2353V20.0471H18.953V16.3765H40V31.5765H36.28C36.393 29.4118 36.5059 27.2 36.5812 24.8H36.5059C34.7388 30.1176 28.313 32.1882 20.5694 32.1882C5.80001 32.1906 0.0117798 24.4259 0.0117798 16.4729Z" fill="white"></path><path d="M52.593 0.611816H75.1435C86.0424 0.611816 89.7271 4.09417 89.7271 9.50593C89.7271 13.3648 87.9977 16.2824 83.0377 16.8942V16.9883C88.6377 17.6001 89.5765 21.2706 89.5765 25.1765V31.5765H85.4424V25.1765C85.4424 21.4118 84.1271 19.2001 77.7741 19.2001H56.7271V31.5765H52.593V0.611816ZM77.5482 15.4353C83.1106 15.4353 85.7412 13.3648 85.7412 10.1177C85.7412 6.96476 83.2235 4.94123 75.1435 4.94123H56.7271V15.4353H77.5482Z" fill="white"></path><path d="M102.431 16.8965V0.611816H106.565V16.8942C106.565 24.4236 112.165 27.8589 122.012 27.8589C131.934 27.8589 137.534 24.4236 137.534 16.8942V0.611816H141.367V16.8942C141.367 27.2001 134.226 32.1883 121.936 32.1883C109.758 32.1906 102.431 27.2024 102.431 16.8965Z" fill="white"></path><path d="M154.372 0.611816H175.042C185.153 0.611816 190.226 4.37652 190.226 11.3412C190.226 17.8353 185.64 21.6471 176.019 21.6471H158.506V31.5765H154.372V0.611816ZM175.569 17.7906C182.824 17.7906 186.242 15.7671 186.242 11.3436C186.242 6.54358 181.995 4.94358 175.005 4.94358H158.506V17.7906H175.569Z" fill="white"></path><path d="M200.976 15.9529C200.976 6.21176 209.282 0 222.962 0C236.642 0 244.948 6.21176 244.948 15.9529C244.948 26.1647 236.793 32.1906 222.962 32.1906C209.132 32.1906 200.976 26.1671 200.976 15.9529ZM240.814 15.9529C240.814 8.94118 234.049 4.32941 222.962 4.32941C211.875 4.32941 205.111 8.94118 205.111 15.9529C205.111 23.4353 211.725 27.8588 222.962 27.8588C234.2 27.8612 240.814 23.4376 240.814 15.9529Z" fill="white"></path></g><defs><clipPath id="clip0_119_31"><rect width="800" height="171.845" fill="white"></rect></clipPath></defs></svg>